<svg width="175" height="50" viewBox="0 0 175 50" fill="none" xmlns="http://www.w3.org/2000/svg">
<g clip-path="url(#clip0_1242_1010)" filter="url(#filter0_i_1242_1010)">
<path d="M17.0544 13.3599C17.3639 12.4603 18.6361 12.4603 18.9456 13.3599L21.8091 21.6834C21.948 22.087 22.3278 22.358 22.7547 22.358L31.8942 22.358C32.8767 22.358 33.2701 23.6267 32.46 24.1826L25.1662 29.1875C24.7955 29.4418 24.6401 29.9122 24.7864 30.3373L27.5953 38.5019C27.9088 39.4132 26.8785 40.197 26.0839 39.6517L18.5658 34.493C18.2249 34.2591 17.7751 34.2591 17.4342 34.493L9.91614 39.6517C9.12147 40.197 8.09122 39.4132 8.40475 38.5019L11.2136 30.3373C11.3599 29.9122 11.2045 29.4418 10.8338 29.1875L3.53998 24.1826C2.72986 23.6267 3.12327 22.358 4.10577 22.358L13.2453 22.358C13.6722 22.358 14.052 22.087 14.1909 21.6834L17.0544 13.3599Z" fill="#FFC700" fill-opacity="0.62"/>
<path d="M50.0544 13.3599C50.3639 12.4603 51.6361 12.4603 51.9456 13.3599L54.8091 21.6834C54.948 22.087 55.3278 22.358 55.7547 22.358L64.8942 22.358C65.8767 22.358 66.2701 23.6267 65.46 24.1826L58.1662 29.1875C57.7955 29.4418 57.6401 29.9122 57.7864 30.3373L60.5953 38.5019C60.9088 39.4132 59.8785 40.197 59.0839 39.6517L51.5658 34.493C51.2249 34.2591 50.7751 34.2591 50.4342 34.493L42.9161 39.6517C42.1215 40.197 41.0912 39.4132 41.4047 38.5019L44.2136 30.3373C44.3599 29.9122 44.2045 29.4418 43.8338 29.1875L36.54 24.1826C35.7299 23.6267 36.1233 22.358 37.1058 22.358L46.2453 22.358C46.6722 22.358 47.052 22.087 47.1909 21.6834L50.0544 13.3599Z" fill="#FFC700" fill-opacity="0.62"/>
<path d="M87.0544 13.3599C87.3639 12.4603 88.6361 12.4603 88.9456 13.3599L91.8091 21.6834C91.948 22.087 92.3278 22.358 92.7547 22.358L101.894 22.358C102.877 22.358 103.27 23.6267 102.46 24.1826L95.1662 29.1875C94.7955 29.4418 94.6401 29.9122 94.7864 30.3373L97.5953 38.5019C97.9088 39.4132 96.8785 40.197 96.0839 39.6517L88.5658 34.493C88.2249 34.2591 87.7751 34.2591 87.4342 34.493L79.9161 39.6517C79.1215 40.197 78.0912 39.4132 78.4047 38.5019L81.2136 30.3373C81.3599 29.9122 81.2045 29.4418 80.8338 29.1875L73.54 24.1826C72.7299 23.6267 73.1233 22.358 74.1058 22.358L83.2453 22.358C83.6722 22.358 84.052 22.087 84.1909 21.6834L87.0544 13.3599Z" fill="#FFC700" fill-opacity="0.62"/>
<path d="M123.054 13.3599C123.364 12.4603 124.636 12.4603 124.946 13.3599L127.809 21.6834C127.948 22.087 128.328 22.358 128.755 22.358L137.894 22.358C138.877 22.358 139.27 23.6267 138.46 24.1826L131.166 29.1875C130.796 29.4418 130.64 29.9122 130.786 30.3373L133.595 38.5019C133.909 39.4132 132.879 40.197 132.084 39.6517L124.566 34.493C124.225 34.2591 123.775 34.2591 123.434 34.493L115.916 39.6517C115.121 40.197 114.091 39.4132 114.405 38.5019L117.214 30.3373C117.36 29.9122 117.204 29.4418 116.834 29.1875L109.54 24.1826C108.73 23.6267 109.123 22.358 110.106 22.358L119.245 22.358C119.672 22.358 120.052 22.087 120.191 21.6834L123.054 13.3599Z" fill="#FFC700" fill-opacity="0.62"/>
<path d="M159.054 13.3599C159.364 12.4603 160.636 12.4603 160.946 13.3599L163.809 21.6834C163.948 22.087 164.328 22.358 164.755 22.358L173.894 22.358C174.877 22.358 175.27 23.6267 174.46 24.1826L167.166 29.1875C166.796 29.4418 166.64 29.9122 166.786 30.3373L169.595 38.5019C169.909 39.4132 168.879 40.197 168.084 39.6517L160.566 34.493C160.225 34.2591 159.775 34.2591 159.434 34.493L151.916 39.6517C151.121 40.197 150.091 39.4132 150.405 38.5019L153.214 30.3373C153.36 29.9122 153.204 29.4418 152.834 29.1875L145.54 24.1826C144.73 23.6267 145.123 22.358 146.106 22.358L155.245 22.358C155.672 22.358 156.052 22.087 156.191 21.6834L159.054 13.3599Z" fill="#FFC700" fill-opacity="0.62"/>
</g>
<defs>
<filter id="filter0_i_1242_1010" x="0" y="0.611328" width="175" height="53" filterUnits="userSpaceOnUse" color-interpolation-filters="sRGB">
<feFlood flood-opacity="0" result="BackgroundImageFix"/>
<feBlend mode="normal" in="SourceGraphic" in2="BackgroundImageFix" result="shape"/>
<feColorMatrix in="SourceAlpha" type="matrix" values="0 0 0 0 0 0 0 0 0 0 0 0 0 0 0 0 0 0 127 0" result="hardAlpha"/>
<feOffset dy="4"/>
<feGaussianBlur stdDeviation="2"/>
<feComposite in2="hardAlpha" operator="arithmetic" k2="-1" k3="1"/>
<feColorMatrix type="matrix" values="0 0 0 0 0.405 0 0 0 0 0.405 0 0 0 0 0.405 0 0 0 0.08 0"/>
<feBlend mode="normal" in2="shape" result="effect1_innerShadow_1242_1010"/>
</filter>
<clipPath id="clip0_1242_1010">
<rect width="175" height="49" fill="white" transform="translate(0 0.611328)"/>
</clipPath>
</defs>
</svg>
