<svg width="80" height="80" viewBox="0 0 80 80" fill="none" xmlns="http://www.w3.org/2000/svg">
<circle cx="40" cy="40" r="40" fill="#427AA1"/>
<g clip-path="url(#clip0_1579_31)">
<path d="M60 37.7861C60 33.091 58.1687 28.6771 54.8433 25.3573C51.5183 22.0378 47.0977 20.2097 42.3956 20.2097C37.4888 20.2097 32.7896 22.2667 29.462 25.862C28.867 25.6416 28.2315 25.5266 27.5785 25.5266C27.5784 25.5266 27.5786 25.5266 27.5785 25.5266C26.1301 25.5266 24.7677 26.0923 23.7426 27.1193C23.7212 27.1407 23.7011 27.1634 23.6823 27.1872L22.4574 28.7394C21.2865 30.2233 20.4954 31.988 20.1695 33.8425C19.8408 35.7131 19.9922 37.6416 20.6074 39.4195C21.0533 40.7082 21.6142 41.697 22.2748 42.3588L37.4181 57.5266C37.9419 58.0514 38.6766 58.5177 39.6022 58.9126C40.9826 59.5016 42.4484 59.7902 43.9122 59.7901C46.3494 59.79 48.7802 58.9896 50.7956 57.4426L52.5377 56.1054C52.5649 56.0845 52.5907 56.0618 52.6149 56.0376C53.9892 54.6608 54.4701 52.7226 54.0575 50.9529C57.8362 47.6144 60 42.8252 60 37.7861ZM51.5435 54.8987L49.8442 56.2031C47.0652 58.3364 43.3757 58.8239 40.2154 57.4754C39.4749 57.1595 38.9058 56.8053 38.524 56.4228L23.3806 41.2549C22.8883 40.7617 22.452 39.9722 22.084 38.9086C21.0036 35.7859 21.6017 32.3462 23.684 29.7074L24.8794 28.1924C25.6056 27.4806 26.5624 27.0892 27.5784 27.0892C28.6089 27.0892 29.5784 27.4919 30.3082 28.2231L32.8099 30.7295C34.2483 32.1705 34.2483 34.5151 32.8098 35.9562L30.0079 38.7649C29.7036 39.07 29.7037 39.5638 30.0082 39.8687L39.887 49.762C40.0335 49.9087 40.2324 49.9912 40.4398 49.9912H40.44C40.6475 49.9912 40.8465 49.9085 40.9929 49.7617L43.7946 46.9532C44.4914 46.255 45.417 45.8706 46.4009 45.8706C47.3847 45.8706 48.3103 46.255 49.0072 46.9532L51.5089 49.4595C53.0038 50.9572 53.0153 53.3868 51.5435 54.8987ZM50.3492 46.0858L50.1132 45.8494C49.1211 44.8555 47.8027 44.3081 46.401 44.3081C44.9991 44.3081 43.6808 44.8555 42.6885 45.8495L40.4396 48.104L31.6649 39.3164L33.9159 37.0599C35.8971 35.0749 35.9596 31.8845 34.1035 29.8235C36.2685 27.5785 39.2625 26.3003 42.3956 26.3003C48.7402 26.3003 53.9018 31.4528 53.9018 37.7861C53.9018 40.9259 52.6131 43.9227 50.3492 46.0858ZM52.6149 48.3558L51.4533 47.1919C54.0097 44.7365 55.4644 41.3422 55.4644 37.7861C55.4644 30.5912 49.6017 24.7378 42.3956 24.7378C38.8498 24.7378 35.4609 26.1792 33.0043 28.7123L31.4142 27.1193C31.243 26.9478 31.0625 26.7892 30.8737 26.6439C33.888 23.5405 38.0526 21.7723 42.3956 21.7723C51.2412 21.7723 58.4375 28.956 58.4375 37.7861C58.4375 42.1909 56.6223 46.3866 53.4336 49.4063C53.2097 49.0316 52.9368 48.6783 52.6149 48.3558Z" fill="white"/>
<path d="M47.7873 37.8347H47.6998C47.7092 36.1905 47.7141 34.4333 47.6938 34.189C47.648 33.6377 47.317 33.1884 46.8504 33.0444C46.3876 32.9016 45.8964 33.0812 45.5361 33.5251C45.1471 34.0045 43.3516 37.255 42.8106 38.2398C42.6776 38.4818 42.6823 38.7761 42.8229 39.0138C42.9636 39.2515 43.2192 39.3972 43.4953 39.3972H46.1267C46.1235 39.8355 46.1201 40.2555 46.1169 40.6351C46.1132 41.0666 46.46 41.4193 46.8915 41.423C46.8937 41.4231 46.8961 41.4231 46.8983 41.4231C47.3266 41.4231 47.6758 41.0777 47.6794 40.6485C47.6814 40.4142 47.6851 39.9605 47.6894 39.3972H47.7873C48.2188 39.3972 48.5685 39.0475 48.5685 38.616C48.5686 38.1845 48.2188 37.8347 47.7873 37.8347ZM46.1369 37.8347H44.8202C45.3086 36.9576 45.7847 36.1161 46.1457 35.4954C46.1453 36.1365 46.1419 36.9702 46.1369 37.8347Z" fill="white"/>
<path d="M41.6502 40.0785C40.9632 40.0871 40.2343 40.0928 39.6298 40.094C40.0093 39.5844 40.5372 38.8601 41.2509 37.836C41.6879 37.209 41.9728 36.6165 42.0978 36.0749C42.1271 35.9512 42.1516 35.7155 42.1516 35.6337C42.1531 34.2345 41.0166 33.0962 39.6215 33.0962C38.4149 33.0962 37.3708 33.9571 37.1387 35.1434C37.0559 35.5669 37.332 35.9773 37.7555 36.0601C38.1789 36.1428 38.5894 35.8667 38.6722 35.4433C38.7611 34.9887 39.1603 34.6587 39.6215 34.6587C40.141 34.6587 40.5661 35.0733 40.5882 35.5914L40.5669 35.7583C40.4817 36.0972 40.2807 36.4955 39.9689 36.9427C38.8863 38.4961 38.2403 39.3456 37.8934 39.802C37.4645 40.3658 37.2688 40.6232 37.4019 41.0552C37.4801 41.309 37.6723 41.504 37.9292 41.5899C38.0337 41.6249 38.1338 41.6584 39.4627 41.6584C39.9843 41.6584 40.6953 41.6533 41.6698 41.6409C42.1013 41.6355 42.4467 41.2813 42.4412 40.8499C42.4359 40.4184 42.0803 40.0741 41.6502 40.0785Z" fill="white"/>
</g>
<defs>
<clipPath id="clip0_1579_31">
<rect width="40" height="40" fill="white" transform="translate(20 20)"/>
</clipPath>
</defs>
</svg>
