<svg width="80" height="80" viewBox="0 0 80 80" fill="none" xmlns="http://www.w3.org/2000/svg">
<circle cx="40" cy="40" r="40" fill="#427AA1"/>
<path d="M22.8906 53.2764C22.4591 53.2764 22.1094 53.6261 22.1094 54.0576V54.0686C22.1094 54.5 22.4591 54.8498 22.8906 54.8498C23.3221 54.8498 23.6719 54.5 23.6719 54.0686V54.0576C23.6719 53.6262 23.3221 53.2764 22.8906 53.2764Z" fill="white"/>
<path d="M30.8036 34.5009C30.4711 34.226 29.9786 34.2727 29.7036 34.6053L29.6913 34.6202C29.4165 34.9529 29.4632 35.4453 29.7958 35.7202C29.9415 35.8406 30.1178 35.8993 30.2931 35.8993C30.518 35.8993 30.7412 35.8026 30.8957 35.6157L30.908 35.6008C31.1829 35.2682 31.1361 34.7757 30.8036 34.5009Z" fill="white"/>
<path d="M53.7433 29.5894C52.2912 29.5894 50.8792 30.1142 49.7656 31.0497C48.6521 30.1141 47.2402 29.5894 45.788 29.5894C42.338 29.5894 39.5312 32.4593 39.5312 35.9869C39.5312 36.8006 39.7905 37.7375 40.3189 38.8279H35.6422L37.4865 34.842C38.3227 33.0347 38.0266 30.8892 36.7319 29.3761L35.962 28.4763C35.8122 28.3011 35.5934 28.2 35.362 28.2029C35.1314 28.2048 34.9134 28.3085 34.7665 28.4861L31.7916 32.0816C31.5166 32.414 31.5631 32.9065 31.8955 33.1815C32.228 33.4566 32.7205 33.4101 32.9955 33.0776L35.3784 30.1976L35.5445 30.3918C36.4431 31.4421 36.6488 32.9313 36.0683 34.1858L33.7107 39.281C33.5987 39.5229 33.6179 39.8052 33.7615 40.0298C33.905 40.2544 34.1532 40.3903 34.4198 40.3903H48.124C48.8878 40.3903 49.5093 41.0118 49.5093 41.7756V41.8174C49.5093 42.5813 48.8878 43.2027 48.124 43.2027H43.8952H38.0808C37.6493 43.2027 37.2995 43.5525 37.2995 43.984C37.2995 44.4154 37.6493 44.7652 38.0808 44.7652H43.8952C44.2677 44.7652 44.6057 44.9137 44.8549 45.1538C44.9028 45.2081 44.9505 45.2622 44.9983 45.316C45.1746 45.5484 45.2805 45.837 45.2805 46.1506V46.1924C45.2805 46.9563 44.6591 47.5777 43.8952 47.5777H38.0808C37.6493 47.5777 37.2995 47.9275 37.2995 48.359C37.2995 48.7904 37.6493 49.1402 38.0808 49.1402H43.8952C44.6591 49.1402 45.2805 49.7617 45.2805 50.5255V50.5673C45.2805 51.3312 44.6591 51.9526 43.8952 51.9526H41.2448H38.0808C37.6493 51.9526 37.2995 52.3024 37.2995 52.7339C37.2995 53.1654 37.6493 53.5151 38.0808 53.5151H41.2448C42.0087 53.5151 42.6302 54.1366 42.6302 54.9004V54.9422C42.6302 55.7061 42.0087 56.3276 41.2448 56.3276H29.9389C28.8857 56.3276 27.8545 56.1326 26.8738 55.748L25.7812 55.3199V41.7972L28.9568 37.959C29.2319 37.6266 29.1853 37.1341 28.8529 36.8591C28.5205 36.584 28.028 36.6305 27.753 36.963L25.6304 39.5284C25.4883 39.334 25.2592 39.2072 25 39.2072H20.7812C20.3498 39.2072 20 39.557 20 39.9885V57.1092C20 57.5407 20.3498 57.8904 20.7812 57.8904H25C25.4315 57.8904 25.7812 57.5407 25.7812 57.1092V56.9983L26.3034 57.203C27.4664 57.6592 28.6896 57.8904 29.9389 57.8904H41.2449C42.8704 57.8904 44.1927 56.568 44.1927 54.9426V54.9008C44.1927 54.4003 44.067 53.9288 43.846 53.5155H43.8953C45.5208 53.5155 46.8431 52.1931 46.8431 50.5677V50.5259C46.8431 49.67 46.4761 48.8983 45.8916 48.3594C46.2486 48.0301 46.5238 47.614 46.6845 47.1449C48.0961 48.6223 49.1669 49.6196 49.2341 49.682C49.384 49.8212 49.5748 49.8908 49.7657 49.8908C49.9566 49.8908 50.1474 49.8211 50.2973 49.682C50.357 49.6266 51.7796 48.3026 53.5358 46.4134C53.8295 46.0974 53.8115 45.603 53.4955 45.3093C53.1794 45.0154 52.6851 45.0335 52.3913 45.3496C51.3062 46.5169 50.3356 47.4781 49.7657 48.0298C49.1049 47.3899 47.9045 46.1982 46.6041 44.7657H48.124C49.7495 44.7657 51.0718 43.4433 51.0718 41.8179V41.7761C51.0718 40.1506 49.7495 38.8283 48.124 38.8283H42.0821C41.2723 37.3799 41.0938 36.4894 41.0938 35.9869C41.0938 33.3208 43.1996 31.1519 45.788 31.1519C47.0871 31.1519 48.2958 31.6865 49.1913 32.6573C49.3393 32.8176 49.5474 32.9088 49.7655 32.9088C49.9837 32.9088 50.1919 32.8176 50.3398 32.6573C51.2354 31.6865 52.4441 31.1519 53.7432 31.1519C56.3316 31.1519 58.4374 33.3209 58.4374 35.9869C58.4374 36.7405 58.0497 38.1818 56.2025 40.7678C55.9517 41.1189 56.033 41.6069 56.3841 41.8576C56.5218 41.9559 56.6804 42.0033 56.8376 42.0033C57.0813 42.0033 57.3215 41.8895 57.474 41.6761C59.1737 39.2965 60 37.4355 60 35.9869C60 32.4593 57.1932 29.5894 53.7433 29.5894ZM24.2188 56.3279H21.5625V40.7698H24.2188V56.3279Z" fill="white"/>
<path d="M55.3293 43.1934C55.0002 42.9144 54.5072 42.955 54.2282 43.2841L54.1881 43.3315C53.909 43.6605 53.9496 44.1536 54.2788 44.4325C54.4257 44.5571 54.605 44.6179 54.7836 44.6179C55.0052 44.6179 55.2254 44.5242 55.3799 44.3419L55.42 44.2946C55.699 43.9654 55.6584 43.4725 55.3293 43.1934Z" fill="white"/>
<path d="M49.7656 22.1094C49.3341 22.1094 48.9844 22.4591 48.9844 22.8906V26.3346C48.9844 26.7661 49.3341 27.1159 49.7656 27.1159C50.1971 27.1159 50.5469 26.7661 50.5469 26.3346V22.8906C50.5469 22.4591 50.1971 22.1094 49.7656 22.1094Z" fill="white"/>
<path d="M45.2289 25.4614L44.1931 23.6674C43.9773 23.2937 43.4995 23.1656 43.1259 23.3815C42.7522 23.5972 42.6242 24.075 42.84 24.4487L43.8758 26.2427C44.0204 26.4933 44.283 26.6334 44.553 26.6334C44.6855 26.6334 44.8199 26.5996 44.9429 26.5286C45.3166 26.3129 45.4447 25.8351 45.2289 25.4614Z" fill="white"/>
<path d="M56.4053 23.3741C56.0317 23.1584 55.5539 23.2863 55.3381 23.66L54.3023 25.454C54.0865 25.8277 54.2146 26.3054 54.5883 26.5212C54.7113 26.5922 54.8456 26.626 54.9782 26.626C55.2482 26.626 55.5108 26.4859 55.6554 26.2353L56.6912 24.4413C56.907 24.0676 56.779 23.5898 56.4053 23.3741Z" fill="white"/>
</svg>
