<svg width="80" height="80" viewBox="0 0 80 80" fill="none" xmlns="http://www.w3.org/2000/svg">
<circle cx="40" cy="40" r="40" fill="#427AA1"/>
<path d="M52.667 24.534C49.7109 21.6102 45.7966 20 41.645 20C37.4934 20 33.5791 21.6102 30.623 24.5339C27.6645 27.46 26.0352 31.3357 26.0352 35.4473C26.0352 36.4392 25.2012 38.1701 23.747 40.1962C22.4682 41.978 22.6451 43.2198 23.0187 43.9478C23.4213 44.7323 24.4356 45.6542 26.9619 45.8115V49.9407C26.9619 52.5752 29.125 54.7185 31.784 54.7185C34.258 54.7185 35.5403 54.8091 36.1361 55.324C36.7206 55.8291 36.9015 57.0491 37.047 59.2697C37.074 59.6805 37.415 59.9998 37.8266 59.9998H50.9499C51.166 59.9998 51.3724 59.9103 51.5201 59.7527C51.6679 59.595 51.7436 59.3831 51.7295 59.1675C51.5933 57.0891 51.5491 55.6453 51.582 54.34C51.5929 53.9087 51.2519 53.5502 50.8207 53.5393C50.388 53.5312 50.0309 53.8694 50.02 54.3007C49.9905 55.4716 50.0201 56.7406 50.1187 58.4373H38.5548C38.3991 56.4138 38.1465 54.9962 37.1577 54.1418C36.0939 53.2223 34.4179 53.156 31.784 53.156C29.9866 53.156 28.5244 51.7136 28.5244 49.9407V48.5682C28.568 48.5758 28.6125 48.5805 28.6583 48.5805C29.3769 48.5805 30.3012 48.8461 31.0132 49.2571C31.1362 49.3282 31.2705 49.3619 31.403 49.3619C31.673 49.3619 31.9356 49.2218 32.0804 48.9712C32.2962 48.5975 32.1681 48.1197 31.7944 47.9039C30.848 47.3574 29.6462 47.0179 28.6583 47.0179C28.6126 47.0179 28.568 47.0227 28.5244 47.0302V45.0535C28.5244 44.622 28.1745 44.2723 27.7431 44.2723C25.9889 44.2723 24.7424 43.8842 24.4088 43.2342C24.1617 42.7527 24.3776 41.9973 25.0164 41.1071C26.194 39.4664 27.5977 37.1526 27.5977 35.4472C27.5978 27.7912 33.8994 21.5625 41.645 21.5625C49.3906 21.5625 55.6923 27.7913 55.6923 35.4474C55.6923 37.9934 54.9802 40.4877 53.6331 42.6606C52.6483 44.2492 51.9023 45.7194 51.3524 47.1549C51.1981 47.5578 51.3996 48.0096 51.8026 48.1639C52.2055 48.3182 52.6572 48.1167 52.8116 47.7137C53.3258 46.3713 54.0289 44.9877 54.9612 43.4839C56.4617 41.0635 57.2548 38.2845 57.2548 35.4474C57.2548 31.3359 55.6255 27.46 52.667 24.534Z" fill="white"/>
<path d="M40.3401 37.8916C42.9403 38.1591 45.629 38.4358 48.0985 39.8615C49.0788 40.4275 49.8993 40.626 50.5681 40.626C51.2009 40.626 51.6979 40.4484 52.066 40.2359C53.3582 39.4897 54.1298 37.6996 54.1298 35.4474C54.1298 32.1521 52.816 29.0515 50.4303 26.7168C48.0635 24.4005 44.9435 23.125 41.645 23.125C37.8935 23.125 34.3668 24.787 31.9688 27.685C30.3849 29.5995 29.8178 31.3887 30.2836 33.0031C30.7822 34.7312 32.4386 36.1029 35.0738 36.9698C36.7551 37.5227 38.5777 37.7102 40.3401 37.8916ZM31.7849 32.5699C31.471 31.4819 31.9379 30.1735 33.1728 28.6811C35.2728 26.1431 38.3608 24.6875 41.645 24.6875C47.6676 24.6875 52.5673 29.5144 52.5673 35.4474C52.5673 37.0845 52.0638 38.4329 51.2847 38.8827C50.7018 39.2192 49.8928 39.0932 48.8797 38.5084C46.121 36.9156 43.2635 36.6216 40.5001 36.3373C38.7428 36.1565 37.083 35.9857 35.5621 35.4854C33.4703 34.7973 32.1288 33.762 31.7849 32.5699Z" fill="white"/>
<path d="M40.7616 34.7991C41.2109 34.8428 41.6354 34.8841 42.0485 34.932C44.6284 35.231 46.4453 35.6658 48.1239 36.3858C48.4298 36.517 48.7491 36.5816 49.059 36.5816C49.4936 36.5816 49.9098 36.4545 50.2444 36.2057C50.7746 35.8115 51.0308 35.1637 50.9473 34.4283C50.693 32.188 49.5982 30.1173 47.8646 28.5978C46.1373 27.0838 43.9286 26.25 41.645 26.25C38.8392 26.25 36.1999 27.4891 34.3981 29.6512C33.8484 30.2202 33.6325 31.0261 33.8205 31.8155C34.059 32.8169 34.8717 33.6136 36.0502 34.0012C37.5155 34.4831 39.1657 34.6437 40.7616 34.7991ZM35.3405 31.4534C35.2751 31.1786 35.3445 30.9141 35.531 30.7277C35.5484 30.7103 35.5648 30.6921 35.5805 30.6733C37.0848 28.8552 39.2952 27.8125 41.645 27.8125C45.5583 27.8125 48.9623 30.7959 49.3946 34.6045C49.4145 34.7795 49.3866 34.8962 49.312 34.9518C49.2088 35.0286 48.979 35.0525 48.7398 34.9498C46.4314 33.9598 44.0473 33.5908 42.2283 33.38C41.8009 33.3305 41.3696 33.2885 40.9129 33.2441C39.4017 33.097 37.8391 32.9449 36.5385 32.517C35.8871 32.3027 35.4505 31.915 35.3405 31.4534Z" fill="white"/>
<path d="M40.4141 31.5898C40.8816 31.3624 41.4016 31.2422 41.9177 31.2422C42.7238 31.2422 43.5141 31.5324 44.1428 32.0595C44.2891 32.1822 44.4671 32.2421 44.6443 32.2421C44.8673 32.2421 45.0888 32.147 45.2434 31.9627C45.5206 31.6321 45.4773 31.1393 45.1466 30.8621C44.237 30.0996 43.0904 29.6797 41.9177 29.6797C41.1661 29.6797 40.4097 29.8544 39.7305 30.1848C39.3425 30.3736 39.181 30.8412 39.3698 31.2291C39.5584 31.6172 40.0264 31.7787 40.4141 31.5898Z" fill="white"/>
<path d="M30.7187 36.7612H30.718C30.2866 36.7612 29.9371 37.111 29.9371 37.5425C29.9371 37.974 30.2873 38.3237 30.7187 38.3237C31.1502 38.3237 31.5 37.974 31.5 37.5425C31.5 37.111 31.1501 36.7612 30.7187 36.7612Z" fill="white"/>
<path d="M51.1354 51.6021C51.5668 51.6021 51.9166 51.2523 51.9166 50.8208C51.9166 50.3893 51.5668 50.0396 51.1354 50.0396H51.1348C50.7034 50.0396 50.3539 50.3893 50.3539 50.8208C50.3539 51.2523 50.704 51.6021 51.1354 51.6021Z" fill="white"/>
</svg>
