<svg width="80" height="80" viewBox="0 0 80 80" fill="none" xmlns="http://www.w3.org/2000/svg">
<circle cx="40" cy="40" r="40" fill="#427AA1"/>
<g clip-path="url(#clip0_1579_32)">
<path d="M32.2764 36.9093C31.845 36.9093 31.4951 36.5595 31.4951 36.128V35.5229C31.4951 35.0915 31.845 34.7417 32.2764 34.7417C32.7078 34.7417 33.0576 35.0915 33.0576 35.5229V36.128C33.0576 36.5594 32.7078 36.9093 32.2764 36.9093Z" fill="white"/>
<path d="M37.7763 36.9093C37.3449 36.9093 36.9951 36.5595 36.9951 36.128V35.5229C36.9951 35.0915 37.3449 34.7417 37.7763 34.7417C38.2077 34.7417 38.5576 35.0915 38.5576 35.5229V36.128C38.5576 36.5594 38.2078 36.9093 37.7763 36.9093Z" fill="white"/>
<path d="M34.971 41.2693C34.3167 41.2693 33.7017 41.0137 33.2393 40.5497C32.9348 40.2441 32.9356 39.7494 33.2413 39.4448C33.5471 39.1403 34.0417 39.1412 34.3462 39.4469C34.5132 39.6145 34.7352 39.7069 34.971 39.7069C35.2069 39.7069 35.4288 39.6145 35.5958 39.4469C35.9004 39.1412 36.395 39.1404 36.7007 39.4448C37.0063 39.7494 37.0073 40.2441 36.7027 40.5497C36.2402 41.0137 35.6253 41.2693 34.971 41.2693Z" fill="white"/>
<path d="M58.8135 52.2696C58.4162 52.102 57.9578 52.2884 57.7901 52.6861C56.4967 55.7549 53.5164 57.7379 50.1974 57.7379C45.6537 57.7379 41.9572 54.0268 41.9572 49.4654C41.9572 44.904 45.6537 41.1929 50.1974 41.1929C53.5341 41.1929 56.5205 43.1905 57.8057 46.2818C57.9712 46.6802 58.4286 46.8688 58.8269 46.7033C59.2254 46.5377 59.4141 46.0804 59.2484 45.682C57.7202 42.0058 54.1675 39.6304 50.1974 39.6304C49.3021 39.6304 48.4345 39.7515 47.6099 39.9782V33.3727C47.6099 26.3847 41.9437 20.6995 34.9789 20.6995C28.0143 20.6995 22.3481 26.3847 22.3481 33.3727V40.1667C20.9059 40.956 20 42.465 20 44.1451C20 46.4052 21.6568 48.2845 23.8162 48.6253C23.0139 49.4794 22.5219 50.6281 22.5219 51.8896V58.5191C22.5219 58.9506 22.8717 59.3004 23.3031 59.3004H46.6546C46.957 59.3004 47.2193 59.1285 47.3491 58.8771C48.2509 59.1523 49.2072 59.3004 50.1974 59.3004C54.1464 59.3004 57.6919 56.9423 59.2299 53.2929C59.3976 52.8953 59.211 52.4371 58.8135 52.2696ZM21.5625 44.1451C21.5625 42.923 22.2921 41.8394 23.4212 41.3846C23.7169 41.2655 23.9106 40.9787 23.9106 40.66V33.3726C23.9106 27.2461 28.8758 22.2619 34.979 22.2619C41.0822 22.2619 46.0473 27.2461 46.0473 33.3726V40.5558C43.3964 41.8038 41.3896 44.2085 40.6768 47.118H37.429V45.1493C38.9626 44.6655 40.3404 43.7259 41.3568 42.4599C42.5226 41.0079 43.1646 39.1797 43.1646 37.3119V34.5006C43.1646 34.1502 42.9313 33.8427 42.5938 33.7483C41.0667 33.321 39.3146 32.1966 37.7868 30.6633C37.3992 30.2744 37.0333 29.8663 36.6992 29.4503C35.5709 28.0453 33.8222 27.3016 32.0234 27.4611C30.234 27.6196 28.6536 28.6515 27.7959 30.2217C27.1399 31.4227 26.7931 32.7856 26.7931 34.1632V37.3121C26.7931 39.1799 27.4351 41.0081 28.6008 42.4601C29.6173 43.7261 30.9951 44.6656 32.5287 45.1494V47.1181H24.5221C22.8902 47.118 21.5625 45.7844 21.5625 44.1451ZM33.4859 43.7922C30.4653 43.0939 28.3557 40.4292 28.3557 37.312V34.1631C28.3557 33.0466 28.6363 31.9427 29.1673 30.9707C29.7831 29.8433 30.8744 29.1315 32.1613 29.0176C33.4391 28.9048 34.6806 29.4319 35.481 30.4287C35.8499 30.888 36.2533 31.338 36.68 31.7663C38.2114 33.3031 39.9743 34.4819 41.6022 35.0699V37.3121C41.6022 40.4292 39.4925 43.094 36.4719 43.7923C36.1175 43.8742 35.8666 44.1898 35.8666 44.5534V47.1181H34.0913V44.5534C34.0913 44.1897 33.8403 43.8741 33.4859 43.7922ZM37.4657 48.6805L34.9302 56.2147L32.0341 48.6805H37.4657ZM24.0844 51.8896C24.0844 50.1201 25.5239 48.6806 27.2934 48.6806H30.36L33.8416 57.7379H24.0844V51.8896ZM36.0662 57.7379L39.1143 48.6806H40.4256C40.4051 48.9396 40.3946 49.2013 40.3946 49.4654C40.3946 52.9323 42.1919 55.986 44.9008 57.7379H36.0662Z" fill="white"/>
<path d="M59.9854 49.3125C59.9191 48.9914 59.6548 48.7394 59.33 48.6922C59.0043 48.6448 58.6741 48.8156 58.5245 49.1088C58.3761 49.3999 58.4251 49.7604 58.6489 49.9997C58.869 50.2349 59.2204 50.309 59.5173 50.1868C59.8575 50.0467 60.0575 49.6734 59.9854 49.3125Z" fill="white"/>
<path d="M55.3835 46.6534C55.3835 46.2219 55.0337 45.8721 54.6023 45.8721C53.7423 45.8721 53.0428 46.5729 53.0428 47.4343V48.0142C53.0428 49.3182 52.169 50.4211 50.9786 50.763V47.3271C51.3033 47.2324 51.5406 46.9325 51.5406 46.5771C51.5406 46.1457 51.1908 45.7959 50.7594 45.7959H49.6353C49.2039 45.7959 48.8541 46.1457 48.8541 46.5771C48.8541 46.9325 49.0913 47.2324 49.416 47.3271V50.763C48.2257 50.4211 47.3519 49.3182 47.3519 48.0142V47.4343C47.3519 46.5729 46.6523 45.8721 45.7924 45.8721C45.3609 45.8721 45.0096 46.2218 45.0096 46.6532C45.0096 47.0847 45.3579 47.4343 45.7893 47.4343V48.0142C45.7893 50.1846 47.3568 51.9947 49.4159 52.3655V54.331C49.0912 54.4257 48.854 54.7257 48.854 55.081C48.854 55.5125 49.2038 55.8622 49.6352 55.8622H50.7593C51.1907 55.8622 51.5405 55.5125 51.5405 55.081C51.5405 54.7256 51.3032 54.4257 50.9785 54.331V52.3656C53.0377 51.9947 54.6052 50.1846 54.6052 48.0143L54.6018 47.4347H54.6022C55.0337 47.4346 55.3835 47.0849 55.3835 46.6534Z" fill="white"/>
</g>
<defs>
<clipPath id="clip0_1579_32">
<rect width="40" height="40" fill="white" transform="translate(20 20)"/>
</clipPath>
</defs>
</svg>
