<svg width="116" height="98" viewBox="0 0 116 98" fill="none" xmlns="http://www.w3.org/2000/svg">
<rect y="0.611328" width="116" height="97" rx="12" fill="white"/>
<path d="M78.3688 24.9771V71.5319C78.3688 74.269 75.7052 76.4963 72.432 76.4963H33.7769C30.5038 76.4963 27.8401 74.269 27.8401 71.5319V24.9771C27.8401 22.24 30.5038 20.0127 33.7769 20.0127H72.432C75.7052 20.0127 78.3688 22.24 78.3688 24.9771Z" fill="#EEF4FF"/>
<path d="M78.3682 24.9771V71.5319C78.3682 74.269 75.7045 76.4963 72.4314 76.4963H53.1698V20.0127H72.4314C75.7045 20.0127 78.3682 22.24 78.3682 24.9771Z" fill="#D9E6FC"/>
<path d="M69.9231 32.375C69.9231 33.2885 69.0366 34.0298 67.9442 34.0298H38.3922C37.2998 34.0298 36.4133 33.2885 36.4133 32.375C36.4133 31.4616 37.2998 30.7202 38.3922 30.7202H67.9442C69.0366 30.7202 69.9231 31.4616 69.9231 32.375Z" fill="#425796"/>
<path d="M69.9253 32.375C69.9253 33.2885 69.0387 34.0298 67.9464 34.0298H53.0384V30.7202H67.9464C69.0387 30.7202 69.9253 31.4616 69.9253 32.375Z" fill="#283758"/>
<path d="M63.5905 41.1924C63.5905 42.1058 62.704 42.8472 61.6116 42.8472H38.3922C37.2998 42.8472 36.4133 42.1058 36.4133 41.1924C36.4133 40.2789 37.2998 39.5376 38.3922 39.5376H61.6116C62.704 39.5376 63.5905 40.2789 63.5905 41.1924Z" fill="#425796"/>
<path d="M63.5927 41.1924C63.5927 42.1058 62.7061 42.8472 61.6138 42.8472H53.0384V39.5376H61.6138C62.7061 39.5376 63.5927 40.2789 63.5927 41.1924Z" fill="#283758"/>
<path d="M57.258 50.0186C57.258 50.932 56.3714 51.6734 55.2791 51.6734H38.3922C37.2998 51.6734 36.4133 50.932 36.4133 50.0186C36.4133 49.1051 37.2998 48.3638 38.3922 48.3638H55.2791C56.3714 48.3638 57.258 49.1051 57.258 50.0186Z" fill="#425796"/>
<path d="M57.2601 50.0186C57.2601 50.932 56.3736 51.6734 55.2812 51.6734H53.0384V48.3638H55.2812C56.3736 48.3638 57.2601 49.1051 57.2601 50.0186Z" fill="#283758"/>
<path d="M94.8383 44.651C94.5916 44.9997 93.7671 45.7079 88.2419 50.2674C85.04 52.9096 80.2589 56.8469 73.0978 62.7578C72.7535 63.0435 73.5319 62.6949 61.3496 67.4486C59.6675 68.1072 57.9445 66.6366 58.7189 65.2488C64.413 55.0476 63.9855 55.7095 64.3378 55.4182C71.4751 49.4499 76.2166 45.4829 79.3684 42.8473C85.4939 37.723 85.6139 37.6259 85.6284 37.6391C87.2155 36.5668 89.4966 36.6727 90.924 37.8664C94.4993 40.8561 94.3265 40.7005 94.4993 40.8803C95.5125 41.9129 95.6985 43.4232 94.8383 44.651Z" fill="#FFE278"/>
<path d="M94.8406 44.6441C94.4514 45.1946 92.6176 46.642 73.1001 62.7508C72.7557 63.0366 73.5341 62.6879 61.3518 67.4416C61.084 67.5464 60.7977 67.5972 60.5154 67.5972C59.9679 67.5972 59.4903 67.4173 59.142 67.1338L92.5397 39.2075C94.4474 40.8016 94.359 40.7255 94.5015 40.8733C95.5147 41.9059 95.7008 43.4162 94.8406 44.6441Z" fill="#FFB454"/>
<path d="M94.8394 44.651C94.5927 44.9997 93.7682 45.7079 88.243 50.2674L88.2325 50.2597L83.7812 46.5375L79.3695 42.8495V42.8473C85.495 37.723 85.615 37.6259 85.6295 37.6391C87.2166 36.5668 89.4977 36.6727 90.9251 37.8664C91.5808 38.4147 92.1098 38.8571 92.5386 39.2145C94.4489 40.8108 94.3592 40.7336 94.5004 40.8803C95.5136 41.9129 95.6996 43.4232 94.8394 44.651Z" fill="#DD5958"/>
<path d="M94.839 44.6441C94.5922 44.9927 93.7677 45.7009 88.2425 50.2604L88.232 50.2527L83.7807 46.5305L92.5381 39.2075C94.4484 40.8038 94.3587 40.7266 94.4999 40.8733C95.5131 41.9059 95.6991 43.4162 94.839 44.6441Z" fill="#D8225B"/>
</svg>
