<svg width="1910" height="370" viewBox="0 0 1910 370" fill="none" xmlns="http://www.w3.org/2000/svg">
<path fill-rule="evenodd" clip-rule="evenodd" d="M0 5.50361L32 14.9846C64 24.4657 128 43.4277 192 43.4277C256 43.4277 320 24.4657 384 12.6961C448 0.926558 512 -3.65049 576 3.21508C640 10.4076 704 29.0427 768 36.2352C832 43.4277 896 38.5238 960 29.0427C1024 19.8886 1088 5.50361 1152 5.50361C1216 5.50361 1280 19.8886 1344 26.7542C1408 33.9467 1472 33.9467 1536 43.4277C1600 52.5818 1664 71.5439 1728 78.7364C1792 85.602 1856 81.025 1888 78.7364L1920 76.121V370H1888C1856 370 1792 370 1728 370C1664 370 1600 370 1536 370C1472 370 1408 370 1344 370C1280 370 1216 370 1152 370C1088 370 1024 370 960 370C896 370 832 370 768 370C704 370 640 370 576 370C512 370 448 370 384 370C320 370 256 370 192 370C128 370 64 370 32 370H0V5.50361Z" fill="#38A0C1"/>
</svg>
